<svg width="107" height="48" viewBox="0 0 107 48" fill="none" xmlns="http://www.w3.org/2000/svg">
    <path
        d="M28.216 11.8L17.308 37H11.548L0.676 11.8H6.976L14.644 29.8L22.42 11.8H28.216ZM36.2946 17.344C39.2946 17.344 41.5986 18.064 43.2066 19.504C44.8146 20.92 45.6186 23.068 45.6186 25.948V37H40.3626V34.588C39.3066 36.388 37.3386 37.288 34.4586 37.288C32.9706 37.288 31.6746 37.036 30.5706 36.532C29.4906 36.028 28.6626 35.332 28.0866 34.444C27.5106 33.556 27.2226 32.548 27.2226 31.42C27.2226 29.62 27.8946 28.204 29.2386 27.172C30.6066 26.14 32.7066 25.624 35.5386 25.624H40.0026C40.0026 24.4 39.6306 23.464 38.8866 22.816C38.1426 22.144 37.0266 21.808 35.5386 21.808C34.5066 21.808 33.4866 21.976 32.4786 22.312C31.4946 22.624 30.6546 23.056 29.9586 23.608L27.9426 19.684C28.9986 18.94 30.2586 18.364 31.7226 17.956C33.2106 17.548 34.7346 17.344 36.2946 17.344ZM35.8626 33.508C36.8226 33.508 37.6746 33.292 38.4186 32.86C39.1626 32.404 39.6906 31.744 40.0026 30.88V28.9H36.1506C33.8466 28.9 32.6946 29.656 32.6946 31.168C32.6946 31.888 32.9706 32.464 33.5226 32.896C34.0986 33.304 34.8786 33.508 35.8626 33.508ZM50.7014 10.288H56.3174V37H50.7014V10.288ZM61.5295 17.632H67.1455V37H61.5295V17.632ZM64.3375 14.932C63.3055 14.932 62.4655 14.632 61.8175 14.032C61.1695 13.432 60.8455 12.688 60.8455 11.8C60.8455 10.912 61.1695 10.168 61.8175 9.568C62.4655 8.968 63.3055 8.668 64.3375 8.668C65.3695 8.668 66.2095 8.956 66.8575 9.532C67.5055 10.108 67.8295 10.828 67.8295 11.692C67.8295 12.628 67.5055 13.408 66.8575 14.032C66.2095 14.632 65.3695 14.932 64.3375 14.932ZM84.8496 36.064C84.2976 36.472 83.6136 36.784 82.7976 37C82.0056 37.192 81.1656 37.288 80.2776 37.288C77.9736 37.288 76.1856 36.7 74.9136 35.524C73.6656 34.348 73.0416 32.62 73.0416 30.34V22.384H70.0536V18.064H73.0416V13.348H78.6576V18.064H83.4816V22.384H78.6576V30.268C78.6576 31.084 78.8616 31.72 79.2696 32.176C79.7016 32.608 80.3016 32.824 81.0696 32.824C81.9576 32.824 82.7136 32.584 83.3376 32.104L84.8496 36.064ZM106.875 17.632L98.1266 38.188C97.2386 40.42 96.1346 41.992 94.8146 42.904C93.5186 43.816 91.9466 44.272 90.0986 44.272C89.0906 44.272 88.0946 44.116 87.1106 43.804C86.1266 43.492 85.3226 43.06 84.6986 42.508L86.7506 38.512C87.1826 38.896 87.6746 39.196 88.2266 39.412C88.8026 39.628 89.3666 39.736 89.9186 39.736C90.6866 39.736 91.3106 39.544 91.7906 39.16C92.2706 38.8 92.7026 38.188 93.0866 37.324L93.1586 37.144L84.7706 17.632H90.5666L96.0026 30.772L101.475 17.632H106.875Z"
        fill="black"
        fill-opacity="0.84"
    />
</svg>
